<?xml version="1.0" encoding="UTF-8" standalone="no"?><svg xmlns="http://www.w3.org/2000/svg" xmlns:xlink= "http://www.w3.org/1999/xlink" width="600" height="390" aria-label="A chart." style="overflow: hidden;"><defs id="_ABSTRACT_RENDERER_ID_4"></defs><rect x="0" y="0" width="600" height="390" stroke="none" stroke-width="0" fill="#ffffff"></rect><g><text text-anchor="start" x="115" y="52.05" font-family="Arial" font-size="13" font-weight="bold" stroke="none" stroke-width="0" fill="#000000">Cpp</text><rect x="115" y="41" width="371" height="13" stroke="none" stroke-width="0" fill-opacity="0" fill="#ffffff"></rect></g><g><path d="M301,76A120,120,0,0,1,301,316A120,120,0,0,1,301,76M301,148A48,48,0,0,0,301,244A48,48,0,0,0,301,148Z" stroke="#ffffff" stroke-width="1" fill="#3366cc"></path><text text-anchor="start" x="284.5" y="200.55" font-family="Arial" font-size="13" stroke="none" stroke-width="0" fill="#ffffff">100%</text></g><g><g><g><text text-anchor="start" x="115" y="280.03269468479607" font-family="Arial" font-size="13" stroke="none" stroke-width="0" fill="#222222">name 1</text></g><g><text text-anchor="start" x="115" y="301.06730531520395" font-family="Arial" font-size="13" stroke="none" stroke-width="0" fill="#9e9e9e">100%</text></g></g><g><path d="M301.5,286.5L168,286.5L168,286.5L115.5,286.5" stroke="#636363" stroke-width="1" stroke-opacity="0.7" fill-opacity="1" fill="none"></path><circle cx="301.5" cy="286.5" r="2" stroke="none" stroke-width="0" fill-opacity="0.7" fill="#636363"></circle></g></g><g></g></svg>